<svg width="13" height="14" viewBox="0 0 13 14" fill="none" xmlns="http://www.w3.org/2000/svg">
<path fill-rule="evenodd" clip-rule="evenodd" d="M3.41699 3V3.5H2.09224C1.45254 3.5 0.916074 3.98296 0.849108 4.61914L0.0070022 12.6191C-0.0706871 13.3572 0.508007 14 1.25013 14H11.584C12.3261 14 12.9048 13.3572 12.8271 12.6191L11.985 4.61914C11.918 3.98296 11.3815 3.5 10.7418 3.5H9.41699V3C9.41699 1.34315 8.07385 0 6.41699 0C4.76014 0 3.41699 1.34315 3.41699 3ZM6.41699 1C5.31242 1 4.41699 1.89543 4.41699 3V3.5H8.41699V3C8.41699 1.89543 7.52156 1 6.41699 1ZM4.41699 6.5C4.41699 7.60457 5.31242 8.5 6.41699 8.5C7.52156 8.5 8.41699 7.60457 8.41699 6.5V6C8.41699 5.72386 8.64085 5.5 8.91699 5.5C9.19314 5.5 9.41699 5.72386 9.41699 6V6.5C9.41699 8.15685 8.07385 9.5 6.41699 9.5C4.76014 9.5 3.41699 8.15685 3.41699 6.5V6C3.41699 5.72386 3.64085 5.5 3.91699 5.5C4.19314 5.5 4.41699 5.72386 4.41699 6V6.5Z" fill="white"/>
</svg>
