<svg width="31" height="35" viewBox="0 0 31 35" fill="none" xmlns="http://www.w3.org/2000/svg">
<path d="M29.2109 0C30.1071 4.58016e-05 30.834 0.728423 30.834 1.62695V32.5391C30.834 33.4376 30.1071 34.166 29.2109 34.166H1.62305C0.726835 34.166 0 33.4376 0 32.5391V1.62695C0 0.728423 0.726835 4.64044e-05 1.62305 0H29.2109ZM5.83398 25.833V28.333H9.21094V25.833H5.83398ZM13.7285 25.833V28.333H17.1055V25.833H13.7285ZM21.623 25.833V28.333H25V25.833H21.623ZM5.83398 21.666H9.21094V19.166H5.83398V21.666ZM13.7285 21.666H17.1055V19.166H13.7285V21.666ZM21.623 21.666H25V19.166H21.623V21.666ZM3.24609 12.5H27.5879V3.25391H3.24609V12.5Z" fill="#9B1E1C"/>
</svg>
